External Loads File
version=1
nRows=31
nColumns=13
Range=5.000000e-03-10 seconds
endheader
time 	forceRightX 	forceRightY 	forceRightZ 	pointRightX 	pointRightY 	pointRightZ 	forceLeftX 	forceLeftY 	forceLeftZ 	pointLeftX 	pointLeftY 	pointLeftZ 		
0.005000 -50.834944 231.497966 -0.000000 0.372767 0.374820 -0.105470 2.675099 271.769191 -0.000000 0.070028 0.276511 -0.345219
0.010000 -51.050547 229.891244 -0.000000 0.372651 0.375070 -0.105484 3.530103 270.495871 -0.000000 0.070087 0.276206 -0.345232
0.015000 -51.373311 228.218343 -0.000000 0.372544 0.375367 -0.105478 4.424601 269.179790 -0.000000 0.070143 0.275919 -0.345224
0.020000 -51.809183 226.490846 -0.000000 0.372344 0.375702 -0.105350 5.408579 267.822359 -0.000000 0.070199 0.275712 -0.345223
0.025000 -52.450528 224.705445 -0.000000 0.372121 0.376316 -0.105347 6.390859 266.484983 -0.000000 0.070299 0.275640 -0.345344
0.030000 -52.976817 222.963583 -0.000000 0.371932 0.376547 -0.105163 7.710796 265.247115 -0.000000 0.070257 0.275336 -0.345281
0.035000 -53.419933 221.298418 -0.000000 0.371890 0.376830 -0.105193 9.249406 264.188210 -0.000000 0.070288 0.275108 -0.345288
0.040000 -53.773559 219.763944 -0.000000 0.371762 0.377087 -0.105222 10.908745 263.356453 -0.000000 0.070318 0.274865 -0.345271
0.045000 -54.015869 218.421844 -0.000000 0.371638 0.377358 -0.105210 12.601323 262.759637 -0.000000 0.070352 0.274625 -0.345267
0.050000 -54.047260 217.343623 -0.000000 0.371517 0.377541 -0.105190 14.336095 262.361840 -0.000000 0.070374 0.274461 -0.345247
0.055000 -54.001196 216.530420 -0.000000 0.371417 0.377709 -0.105163 15.837257 262.123232 -0.000000 0.070366 0.274285 -0.345237
0.060000 -53.873182 216.010256 -0.000000 0.371304 0.377840 -0.105159 16.994731 262.002689 -0.000000 0.070374 0.274153 -0.345244
0.065000 -53.727391 215.780827 -0.000000 0.371208 0.377965 -0.105150 17.646794 261.973038 -0.000000 0.070378 0.274011 -0.345249
0.070000 -53.558714 215.830398 -0.000000 0.371138 0.378095 -0.105148 17.790734 262.010025 -0.000000 0.070365 0.273919 -0.345242
0.075000 -53.399359 216.111683 -0.000000 0.371068 0.378158 -0.105141 17.474196 262.115905 -0.000000 0.070365 0.273840 -0.345229
0.080000 -53.307411 216.564595 -0.000000 0.370993 0.378216 -0.105109 16.774913 262.325308 -0.000000 0.070348 0.273788 -0.345229
0.085000 -53.262611 217.162665 -0.000000 0.371022 0.378240 -0.105225 15.878023 262.678926 -0.000000 0.070346 0.273736 -0.345223
0.090000 -53.311148 217.873363 -0.000000 0.370947 0.378285 -0.105225 14.882677 263.211688 -0.000000 0.070338 0.273671 -0.345221
0.095000 -53.332428 218.694023 -0.000000 0.370855 0.378307 -0.105211 14.060130 263.920413 -0.000000 0.070361 0.273622 -0.345230
0.100000 -53.303670 219.580579 -0.000000 0.370759 0.378375 -0.105207 13.491238 264.771726 -0.000000 0.070389 0.273568 -0.345243
0.105000 -53.132786 220.498313 -0.000000 0.370647 0.378411 -0.105188 13.261928 265.692419 -0.000000 0.070426 0.273483 -0.345255
0.110000 -52.830892 221.387683 -0.000000 0.370527 0.378476 -0.105162 13.285796 266.597616 -0.000000 0.070481 0.273393 -0.345266
0.115000 -52.400489 222.198750 -0.000000 0.370387 0.378544 -0.105175 13.461230 267.398157 -0.000000 0.070535 0.273320 -0.345282
0.120000 -51.931334 222.875526 -0.000000 0.370267 0.378612 -0.105223 13.574811 268.015229 -0.000000 0.070610 0.273200 -0.345284
0.125000 -51.422627 223.396335 -0.000000 0.370142 0.378685 -0.105250 13.545189 268.383161 -0.000000 0.070668 0.273110 -0.345289
0.130000 -50.939034 223.732083 -0.000000 0.370009 0.378760 -0.105248 13.259264 268.469098 -0.000000 0.070713 0.273015 -0.345297
0.135000 -50.470577 223.877758 -0.000000 0.369908 0.378801 -0.105255 12.759984 268.265049 -0.000000 0.070763 0.272950 -0.345305
0.140000 -50.088823 223.816947 -0.000000 0.369820 0.378817 -0.105268 12.069565 267.798426 -0.000000 0.070803 0.272896 -0.345312
0.145000 -49.864302 223.537215 -0.000000 0.369728 0.378837 -0.105242 11.260656 267.127397 -0.000000 0.070827 0.272851 -0.345312
0.150000 -49.757342 223.051616 -0.000000 0.369704 0.378844 -0.105241 10.522958 266.326766 -0.000000 0.070847 0.272855 -0.345312
0.155000 -49.772811 222.372221 -0.000000 0.369672 0.378823 -0.105244 9.923168 265.481486 -0.000000 0.070840 0.272854 -0.345308
